<?xml version="1.0" standalone="no"?>
<!DOCTYPE svg PUBLIC "-//W3C//DTD SVG 1.1//EN" "http://www.w3.org/Graphics/SVG/1.1/DTD/svg11.dtd">
<svg version="1.1" xmlns="http://www.w3.org/2000/svg" xmlns:xlink="http://www.w3.org/1999/xlink" width="40" height="40" viewBox="0,0,40,40"><g transform="translate(-220,-160)"><g stroke="none" stroke-miterlimit="10"><path d="M220,180c0,-11.04569 8.95431,-20 20,-20c11.04569,0 20,8.95431 20,20c0,11.04569 -8.95431,20 -20,20c-11.04569,0 -20,-8.95431 -20,-20z" fill="#bd4b4b" stroke-width="0"/><path d="M242.52618,179.9297c0.34849,-1.24832 0.73836,-2.281 1.16912,-3.09857c0.43177,-0.81654 1.01889,-1.45832 1.76185,-1.92536c0.74398,-0.46754 1.70308,-0.70106 2.87782,-0.70106c1.90902,0 3.36734,0.74245 4.37601,2.22786c1.00969,1.48644 1.51454,3.5421 1.51454,6.16648c0,0.88144 -0.06439,1.75777 -0.19214,2.62847c-0.12825,0.87174 -0.30249,1.63819 -0.52323,2.2994l-3.96314,-0.33111c0.58711,-1.28358 0.88093,-2.70562 0.88093,-4.26564c0,-1.13795 -0.13796,-1.99639 -0.41287,-2.57533c-0.27542,-0.57791 -0.73479,-0.86661 -1.37761,-0.86661c-0.42105,0 -0.76544,0.15585 -1.03217,0.46806c-0.2657,0.31169 -0.48134,0.70616 -0.64588,1.18342c-0.16504,0.47828 -0.37609,1.18546 -0.63362,2.12158c-0.51404,1.8896 -6.65906,-1.70055 -6.3116,-2.22378c0,0 2.16298,0.08433 2.51198,-1.10779z" fill="#ffffff" stroke-width="1"/><path d="M237.31997,179.62504c-0.34849,1.24832 -0.73836,2.281 -1.16912,3.09857c-0.43177,0.81654 -1.01889,1.45833 -1.76185,1.92536c-0.74398,0.46754 -1.70307,0.70105 -2.87781,0.70105c-1.90902,0 -3.36734,-0.74245 -4.37601,-2.22786c-1.00969,-1.48643 -1.51453,-3.54209 -1.51453,-6.16647c0,-0.88144 0.06438,-1.75776 0.19213,-2.62847c0.12825,-0.87174 0.30249,-1.6382 0.52323,-2.2994l3.96314,0.33111c-0.58711,1.28358 -0.88092,2.70562 -0.88092,4.26564c0,1.13795 0.13796,1.99639 0.41287,2.57533c0.27542,0.57791 0.73478,0.86661 1.3776,0.86661c0.42105,0 0.76545,-0.15584 1.03218,-0.46805c0.2657,-0.31169 0.48134,-0.70616 0.64587,-1.18342c0.16504,-0.47828 0.37608,-1.18546 0.63361,-2.12158c0.51404,-1.8896 6.65906,1.70055 6.3116,2.22378c0,0 -2.16298,-0.08433 -2.51198,1.10779z" fill="#ffffff" stroke-width="1"/><path d="M240.07541,177.17426c-1.24832,-0.34849 -2.281,-0.73836 -3.09857,-1.16912c-0.81654,-0.43177 -1.45833,-1.01888 -1.92536,-1.76184c-0.46754,-0.74398 -0.70105,-1.70308 -0.70105,-2.87783c0,-1.90902 0.74244,-3.36734 2.22785,-4.37601c1.48644,-1.00969 3.5421,-1.51453 6.16648,-1.51453c0.88144,0 1.75777,0.06438 2.62847,0.19213c0.87174,0.12825 1.6382,0.3025 2.2994,0.52324l-0.33111,3.96314c-1.28358,-0.58711 -2.70563,-0.88092 -4.26564,-0.88092c-1.13795,0 -1.99639,0.13796 -2.57532,0.41287c-0.57791,0.27542 -0.86662,0.73478 -0.86662,1.37759c0,0.42105 0.15584,0.76545 0.46805,1.03218c0.31169,0.2657 0.70617,0.48134 1.18342,0.64587c0.47828,0.16504 1.18546,0.37609 2.12158,0.63362c1.8896,0.51404 -1.70055,6.65906 -2.22379,6.3116c0,0 0.08432,-2.16298 -1.10779,-2.51198z" fill="#ffffff" stroke-width="1"/><path d="M239.77074,182.38047c1.24832,0.34849 2.281,0.73836 3.09857,1.16912c0.81654,0.43177 1.45832,1.01888 1.92536,1.76184c0.46754,0.74398 0.70106,1.70308 0.70106,2.87783c0,1.90902 -0.74245,3.36734 -2.22786,4.37601c-1.48643,1.00969 -3.5421,1.51453 -6.16648,1.51453c-0.88144,0 -1.75777,-0.06438 -2.62847,-0.19213c-0.87174,-0.12825 -1.6382,-0.3025 -2.2994,-0.52324l0.33111,-3.96314c1.28358,0.58711 2.70563,0.88093 4.26564,0.88093c1.13795,0 1.99639,-0.13797 2.57533,-0.41288c0.57791,-0.27542 0.86662,-0.73478 0.86662,-1.37759c0,-0.42105 -0.15584,-0.76544 -0.46805,-1.03217c-0.31169,-0.2657 -0.70617,-0.48134 -1.18342,-0.64587c-0.47828,-0.16504 -1.18546,-0.37609 -2.12158,-0.63362c-1.8896,-0.51404 1.70055,-6.65906 2.22378,-6.3116c0,0 -0.08433,2.16298 1.10779,2.51198z" fill="#ffffff" stroke-width="1"/></g></g></svg>