<?xml version="1.0" standalone="no"?>
<!DOCTYPE svg PUBLIC "-//W3C//DTD SVG 1.1//EN" "http://www.w3.org/Graphics/SVG/1.1/DTD/svg11.dtd">
<svg version="1.1" xmlns="http://www.w3.org/2000/svg" xmlns:xlink="http://www.w3.org/1999/xlink" width="242.77540588378906" height="82.38941955566406" viewBox="0,0,242.7754,82.38942"><g transform="translate(-118.32672,-138.43636)"><g stroke="none" stroke-miterlimit="10"><path d="M221.70607,158.43637c0,-11.04569 8.95431,-20 20,-20c11.04569,0 20,8.95431 20,20c0,11.04569 -8.95431,20 -20,20c-11.04569,0 -20,-8.95431 -20,-20z" fill="#bd4b4b" stroke-width="0"/><path d="M244.23225,158.36607c0.34849,-1.24832 0.73836,-2.281 1.16912,-3.09857c0.43177,-0.81654 1.01889,-1.45832 1.76185,-1.92536c0.74398,-0.46754 1.70308,-0.70106 2.87782,-0.70106c1.90902,0 3.36734,0.74245 4.37601,2.22786c1.00969,1.48644 1.51454,3.5421 1.51454,6.16648c0,0.88144 -0.06439,1.75777 -0.19214,2.62847c-0.12825,0.87174 -0.30249,1.63819 -0.52323,2.2994l-3.96314,-0.33111c0.58711,-1.28358 0.88093,-2.70562 0.88093,-4.26564c0,-1.13795 -0.13796,-1.99639 -0.41287,-2.57533c-0.27542,-0.57791 -0.73479,-0.86661 -1.37761,-0.86661c-0.42105,0 -0.76544,0.15585 -1.03217,0.46806c-0.2657,0.31169 -0.48134,0.70616 -0.64588,1.18342c-0.16504,0.47828 -0.37609,1.18546 -0.63362,2.12158c-0.51404,1.8896 -6.65906,-1.70055 -6.3116,-2.22378c0,0 2.16298,0.08433 2.51198,-1.10779z" fill="#ffffff" stroke-width="1"/><path d="M239.02604,158.06141c-0.34849,1.24832 -0.73836,2.281 -1.16912,3.09857c-0.43177,0.81654 -1.01889,1.45833 -1.76185,1.92536c-0.74398,0.46754 -1.70307,0.70105 -2.87781,0.70105c-1.90902,0 -3.36734,-0.74245 -4.37601,-2.22786c-1.00969,-1.48643 -1.51453,-3.54209 -1.51453,-6.16647c0,-0.88144 0.06438,-1.75776 0.19213,-2.62847c0.12825,-0.87174 0.30249,-1.6382 0.52323,-2.2994l3.96314,0.33111c-0.58711,1.28358 -0.88092,2.70562 -0.88092,4.26564c0,1.13795 0.13796,1.99639 0.41287,2.57533c0.27542,0.57791 0.73478,0.86661 1.3776,0.86661c0.42105,0 0.76545,-0.15584 1.03218,-0.46805c0.2657,-0.31169 0.48134,-0.70616 0.64587,-1.18342c0.16504,-0.47828 0.37608,-1.18546 0.63361,-2.12158c0.51404,-1.8896 6.65906,1.70055 6.3116,2.22378c0,0 -2.16298,-0.08433 -2.51198,1.10779z" fill="#ffffff" stroke-width="1"/><path d="M241.78148,155.61063c-1.24832,-0.34849 -2.281,-0.73836 -3.09857,-1.16912c-0.81654,-0.43177 -1.45833,-1.01888 -1.92536,-1.76184c-0.46754,-0.74398 -0.70105,-1.70308 -0.70105,-2.87783c0,-1.90902 0.74244,-3.36734 2.22785,-4.37601c1.48644,-1.00969 3.5421,-1.51453 6.16648,-1.51453c0.88144,0 1.75777,0.06438 2.62847,0.19213c0.87174,0.12825 1.6382,0.3025 2.2994,0.52324l-0.33111,3.96314c-1.28358,-0.58711 -2.70563,-0.88092 -4.26564,-0.88092c-1.13795,0 -1.99639,0.13796 -2.57532,0.41287c-0.57791,0.27542 -0.86662,0.73478 -0.86662,1.37759c0,0.42105 0.15584,0.76545 0.46805,1.03218c0.31169,0.2657 0.70617,0.48134 1.18342,0.64587c0.47828,0.16504 1.18546,0.37609 2.12158,0.63362c1.8896,0.51404 -1.70055,6.65906 -2.22379,6.3116c0,0 0.08432,-2.16298 -1.10779,-2.51198z" fill="#ffffff" stroke-width="1"/><path d="M241.47681,160.81684c1.24832,0.34849 2.281,0.73836 3.09857,1.16912c0.81654,0.43177 1.45832,1.01888 1.92536,1.76184c0.46754,0.74398 0.70106,1.70308 0.70106,2.87783c0,1.90902 -0.74245,3.36734 -2.22786,4.37601c-1.48643,1.00969 -3.5421,1.51453 -6.16648,1.51453c-0.88144,0 -1.75777,-0.06438 -2.62847,-0.19213c-0.87174,-0.12825 -1.6382,-0.3025 -2.2994,-0.52324l0.33111,-3.96314c1.28358,0.58711 2.70563,0.88093 4.26564,0.88093c1.13795,0 1.99639,-0.13797 2.57533,-0.41288c0.57791,-0.27542 0.86662,-0.73478 0.86662,-1.37759c0,-0.42105 -0.15584,-0.76544 -0.46805,-1.03217c-0.31169,-0.2657 -0.70617,-0.48134 -1.18342,-0.64587c-0.47828,-0.16504 -1.18546,-0.37609 -2.12158,-0.63362c-1.8896,-0.51404 1.70055,-6.65906 2.22378,-6.3116c0,0 -0.08433,2.16298 1.10779,2.51198z" fill="#ffffff" stroke-width="1"/><path d="M167.39061,215.3064h-0.09414c-0.97192,1.53415 -2.07635,2.65339 -3.31239,3.35771c-1.2343,0.70432 -2.71267,1.05648 -4.43511,1.05648c-2.72487,0 -4.93197,-0.68863 -6.62128,-2.06762c-1.69019,-1.37813 -2.53485,-3.2566 -2.53485,-5.63455c0,-2.75451 1.09483,-4.83608 3.28449,-6.24472c2.19141,-1.40864 5.30679,-2.11295 9.34441,-2.11295c1.40864,0 2.724,0.10984 3.94697,0.32775c-0.03313,-1.40864 -0.49512,-2.46511 -1.38772,-3.16943c-0.89085,-0.70432 -2.29077,-1.05648 -4.20149,-1.05648c-3.00555,0 -5.60491,0.61018 -7.79631,1.83053l-0.13947,-5.72868c2.84952,-1.15759 6.08956,-1.73639 9.72098,-1.73639c3.78658,0 6.68142,0.89261 8.68542,2.67781c2.00312,1.78346 3.00556,4.23985 3.00556,7.37093v9.48388c0,2.03625 0.1569,3.86852 0.4707,5.49507h-7.74749c-0.12552,-2.00312 -0.18828,-3.28623 -0.18828,-3.84934zM163.44712,208.1656c-1.63004,0 -2.89921,0.27458 -3.8075,0.82286c-0.90654,0.54916 -1.35983,1.35547 -1.35983,2.41979c0,0.81415 0.32079,1.46355 0.96233,1.94908c0.64156,0.48379 1.47923,0.72523 2.51393,0.72523c1.00156,0 1.90114,-0.27283 2.69872,-0.81938c0.79933,-0.54828 1.41735,-1.26917 1.85494,-2.16177c0.43932,-0.8926 0.65899,-1.82355 0.65899,-2.79286c-1.87847,-0.09501 -3.05262,-0.14296 -3.52158,-0.14296zM163.44712,208.1656" fill="#bd9090" stroke-width="1"/><path d="M193.31162,219.72059c-2.75451,0 -5.21177,-0.52475 -7.37092,-1.57251c-2.16002,-1.05038 -3.84237,-2.53834 -5.04877,-4.46301c-1.20466,-1.92467 -1.80612,-4.17099 -1.80612,-6.73983c0,-2.56623 0.59363,-4.81952 1.78172,-6.76075c1.18984,-1.94036 2.87304,-3.43529 5.04877,-4.48392c2.17571,-1.04776 4.64082,-1.57251 7.39533,-1.57251c2.63073,0 4.86921,0.45328 6.71543,1.35983l-0.61017,6.19939c-0.81415,-0.46896 -1.62743,-0.81328 -2.44071,-1.03207c-0.81415,-0.22054 -1.70675,-0.33124 -2.6778,-0.33124c-1.90898,0 -3.4658,0.6189 -4.6722,1.85494c-1.20466,1.23692 -1.80613,2.87306 -1.80613,4.9093c0,1.87847 0.67294,3.42047 2.01881,4.62688c1.34588,1.20466 3.00381,1.80613 4.97555,1.80613c0.9388,0 1.86975,-0.10112 2.79286,-0.30335c0.92485,-0.20398 1.73116,-0.49511 2.41978,-0.87168l0.18829,6.29353c-2.16002,0.72001 -4.46126,1.08088 -6.90371,1.08088zM193.31162,219.72059" fill="#bd9090" stroke-width="1"/><path d="M217.45095,201.17124c-3.50764,0 -5.26146,2.53659 -5.26146,7.60802v10.37648h-8.45181v-35.21937h8.45181v14.36878h0.09414c0.90829,-1.28312 2.05106,-2.2995 3.42745,-3.05089c1.37813,-0.75052 2.96022,-1.12621 4.74542,-1.12621c3.00555,0 5.31377,0.89957 6.92463,2.69872c1.61261,1.79915 2.41978,4.17012 2.41978,7.11291v15.21605h-8.4518v-11.87926c0,-4.06987 -1.29968,-6.10524 -3.89816,-6.10524zM217.45095,201.17124" fill="#bd9090" stroke-width="1"/><path d="M246.61197,203.42366v6.19939h-12.72305v-6.19939zM246.61197,203.42366" fill="#bd4b4b" stroke-width="1"/><path d="M249.71165,202.76815c0,-5.9806 1.05648,-10.30065 3.16943,-12.96014c2.1147,-2.66124 5.30069,-3.9923 9.5571,-3.9923c4.32092,0 7.52173,1.34587 9.60243,4.03762c2.08245,2.69175 3.1241,6.99698 3.1241,12.91482c0,5.94834 -1.0495,10.26143 -3.1485,12.93922c-2.09726,2.67606 -5.28936,4.01322 -9.57802,4.01322c-4.25642,0 -7.44241,-1.33019 -9.5571,-3.9923c-2.11295,-2.66124 -3.16942,-6.98129 -3.16942,-12.96014zM266.7129,202.76815c0,-4.06987 -0.34519,-6.92637 -1.03556,-8.57036c-0.68863,-1.64312 -1.76777,-2.46511 -3.23916,-2.46511c-1.47139,0 -2.55141,0.81415 -3.23917,2.44071c-0.68863,1.62742 -1.03207,4.49264 -1.03207,8.59476c0,4.10038 0.35216,6.9656 1.05648,8.59477c0.70432,1.62742 1.77562,2.44071 3.21477,2.44071c1.47139,0 2.55053,-0.81328 3.23916,-2.44071c0.69037,-1.62917 1.03555,-4.49438 1.03555,-8.59477zM266.7129,202.76815" fill="#bd9090" stroke-width="1"/><path d="M279.15589,192.57647v-6.19939h23.57373v7.09199l-11.73979,25.68668h-9.38974l12.20701,-26.57927zM279.15589,192.57647" fill="#bd4b4b" stroke-width="1"/><path d="M312.49831,199.5255l-3.89816,-5.91697l11.12962,-7.23146h7.70217v32.77866h-8.73424v-24.04443zM312.49831,199.5255" fill="#bd4b4b" stroke-width="1"/><path d="M346.02902,207.22767c-1.94123,0 -3.65583,-0.43758 -5.14291,-1.31449c-1.48534,-0.87604 -2.63596,-2.0964 -3.45186,-3.66106c-0.81415,-1.56641 -1.22035,-3.3516 -1.22035,-5.3556c0,-2.03363 0.53172,-3.89554 1.59692,-5.58573c1.06432,-1.69193 2.53571,-3.03083 4.41418,-4.0167c1.8776,-0.985 3.97574,-1.47837 6.29354,-1.47837c4.10039,0 7.22187,1.37028 9.36533,4.11085c2.1452,2.73882 3.21825,6.56463 3.21825,11.47829c0,5.91871 -1.2221,10.45145 -3.66456,13.59821c-2.4407,3.14502 -6.04074,4.71753 -10.79837,4.71753c-3.13108,0 -5.9649,-0.50122 -8.50063,-1.50278l0.51952,-6.433c1.75207,1.15759 4.05244,1.73639 6.90022,1.73639c2.56797,0 4.47782,-0.77406 5.72868,-2.32216c1.25261,-1.54985 1.89502,-3.98532 1.92816,-7.30468h-0.09413c-0.81415,1.12795 -1.79217,1.96565 -2.93582,2.51393c-1.14364,0.54655 -2.52962,0.81938 -4.15617,0.81938zM352.83858,196.47462c0,-1.4714 -0.38353,-2.67606 -1.15062,-3.61573c-0.76708,-0.9388 -1.80874,-1.40863 -3.1241,-1.40863c-1.28312,0 -2.30036,0.43148 -3.05088,1.29357c-0.75139,0.86035 -1.12621,1.97872 -1.12621,3.35423c0,1.59692 0.35913,2.86521 1.0774,3.80401c0.72001,0.93967 1.75382,1.40864 3.09969,1.40864c1.31536,0 2.35702,-0.45328 3.1241,-1.35982c0.76708,-0.90829 1.15062,-2.06762 1.15062,-3.47626zM352.83858,196.47462" fill="#bd4b4b" stroke-width="1"/><path d="M135.23225,206.67569c0.34849,-1.24832 0.73836,-2.281 1.16912,-3.09857c0.43177,-0.81654 1.01889,-1.45832 1.76185,-1.92536c0.74398,-0.46754 1.70308,-0.70106 2.87782,-0.70106c1.90902,0 3.36734,0.74245 4.37601,2.22786c1.00969,1.48644 1.51454,3.5421 1.51454,6.16648c0,0.88144 -0.06439,1.75777 -0.19214,2.62847c-0.12825,0.87174 -0.30249,1.63819 -0.52323,2.2994l-3.96314,-0.33111c0.58711,-1.28358 0.88093,-2.70562 0.88093,-4.26564c0,-1.13795 -0.13796,-1.99639 -0.41287,-2.57533c-0.27542,-0.57791 -0.73479,-0.86661 -1.37761,-0.86661c-0.42105,0 -0.76544,0.15585 -1.03217,0.46806c-0.2657,0.31169 -0.48134,0.70616 -0.64588,1.18342c-0.16504,0.47828 -0.37609,1.18546 -0.63362,2.12158c-0.51404,1.8896 -6.65906,-1.70055 -6.3116,-2.22378c0,0 2.16298,0.08433 2.51198,-1.10779z" fill="#bd9090" stroke-width="1"/><path d="M130.02604,206.37103c-0.34849,1.24832 -0.73836,2.281 -1.16912,3.09857c-0.43177,0.81654 -1.01889,1.45833 -1.76185,1.92536c-0.74398,0.46754 -1.70307,0.70105 -2.87781,0.70105c-1.90902,0 -3.36734,-0.74245 -4.37601,-2.22786c-1.00969,-1.48643 -1.51453,-3.54209 -1.51453,-6.16647c0,-0.88144 0.06438,-1.75776 0.19213,-2.62847c0.12825,-0.87174 0.30249,-1.6382 0.52323,-2.2994l3.96314,0.33111c-0.58711,1.28358 -0.88092,2.70562 -0.88092,4.26564c0,1.13795 0.13796,1.99639 0.41287,2.57533c0.27542,0.57791 0.73478,0.86661 1.3776,0.86661c0.42105,0 0.76545,-0.15584 1.03218,-0.46805c0.2657,-0.31169 0.48134,-0.70616 0.64587,-1.18342c0.16504,-0.47828 0.37608,-1.18546 0.63361,-2.12158c0.51404,-1.8896 6.65906,1.70055 6.3116,2.22378c0,0 -2.16298,-0.08433 -2.51198,1.10779z" fill="#bd9090" stroke-width="1"/><path d="M132.78148,203.92025c-1.24832,-0.34849 -2.281,-0.73836 -3.09857,-1.16912c-0.81654,-0.43177 -1.45833,-1.01888 -1.92536,-1.76184c-0.46754,-0.74398 -0.70105,-1.70308 -0.70105,-2.87783c0,-1.90902 0.74244,-3.36734 2.22785,-4.37601c1.48644,-1.00969 3.5421,-1.51453 6.16648,-1.51453c0.88144,0 1.75777,0.06438 2.62847,0.19213c0.87174,0.12825 1.6382,0.3025 2.2994,0.52324l-0.33111,3.96314c-1.28358,-0.58711 -2.70563,-0.88092 -4.26564,-0.88092c-1.13795,0 -1.99639,0.13796 -2.57532,0.41287c-0.57791,0.27542 -0.86662,0.73478 -0.86662,1.37759c0,0.42105 0.15584,0.76545 0.46805,1.03218c0.31169,0.2657 0.70617,0.48134 1.18342,0.64587c0.47828,0.16504 1.18546,0.37609 2.12158,0.63362c1.8896,0.51404 -1.70055,6.65906 -2.22379,6.3116c0,0 0.08432,-2.16298 -1.10779,-2.51198z" fill="#bd4b4b" stroke-width="1"/><path d="M132.47681,209.12646c1.24832,0.34849 2.281,0.73836 3.09857,1.16912c0.81654,0.43177 1.45832,1.01888 1.92536,1.76184c0.46754,0.74398 0.70106,1.70308 0.70106,2.87783c0,1.90902 -0.74245,3.36734 -2.22786,4.37601c-1.48643,1.00969 -3.5421,1.51453 -6.16648,1.51453c-0.88144,0 -1.75777,-0.06438 -2.62847,-0.19213c-0.87174,-0.12825 -1.6382,-0.3025 -2.2994,-0.52324l0.33111,-3.96314c1.28358,0.58711 2.70563,0.88093 4.26564,0.88093c1.13795,0 1.99639,-0.13797 2.57533,-0.41288c0.57791,-0.27542 0.86662,-0.73478 0.86662,-1.37759c0,-0.42105 -0.15584,-0.76544 -0.46805,-1.03217c-0.31169,-0.2657 -0.70617,-0.48134 -1.18342,-0.64587c-0.47828,-0.16504 -1.18546,-0.37609 -2.12158,-0.63362c-1.8896,-0.51404 1.70055,-6.65906 2.22378,-6.3116c0,0 -0.08433,2.16298 1.10779,2.51198z" fill="#bd4b4b" stroke-width="1"/></g></g></svg>